<?xml version="1.0" encoding="iso-8859-1"?>
<!-- Generator: Adobe Illustrator 19.0.0, SVG Export Plug-In . SVG Version: 6.00 Build 0)  -->
<svg version="1.1" id="Capa_1" xmlns="http://www.w3.org/2000/svg" xmlns:xlink="http://www.w3.org/1999/xlink" x="0px" y="0px"
	 viewBox="0 0 496 496" style="enable-background:new 0 0 496 496;" xml:space="preserve">
<g>
	<g>
		<g>
			<path d="M456,272h-16v-80C440,86.136,353.864,0,248,0S56,86.136,56,192v80H40v152c0,6.32,0.896,12.416,2.432,18.256l-0.088,0.088
				l0.152,0.152c6.616,24.84,26.168,44.384,51.008,51.008l0.152,0.152l0.088-0.088C99.584,495.104,105.68,496,112,496h272
				c6.32,0,12.408-0.896,18.256-2.432l0.088,0.088l0.152-0.152c24.84-6.616,44.384-26.168,51.008-51.008l0.152-0.152l-0.088-0.088
				C455.096,436.416,456,430.32,456,424V272z M72,192c0-97.048,78.952-176,176-176s176,78.952,176,176v80h-16v-80
				c0-88.224-71.776-160-160-160S88,103.776,88,192v80H72V192z M344.68,205.808l15.128-68.08l-15.624-3.472l-14.8,66.584
				c-0.464-0.08-0.928-0.144-1.392-0.216V136h-16v64.64c-0.464,0.064-0.928,0.136-1.392,0.216l-14.8-66.584l-15.624,3.472l0.96,4.32
				C273.416,138.16,264.832,136,256,136c-30.872,0-56,25.128-56,56v26.84c-11.632-14.392-28.664-24.224-48-26.368v-1.848
				c0-12.272,4.976-24.288,13.656-32.968l-11.312-11.312C142.688,158,136,174.144,136,190.624v1.84
				c-11.512,1.288-22.448,5.4-32,11.792V192c0-79.4,64.6-144,144-144s144,64.6,144,144v80h-16v-16
				C376,233.992,363.2,214.96,344.68,205.808z M274.112,224c-5.368,7.672-8.88,16.728-9.832,26.536
				C251.336,238.824,234.312,232,216,232v-40c0-22.056,17.944-40,40-40c11.36,0,22.224,4.856,29.816,13.328l0.424-0.376l9.08,40.864
				c-5.72,2.824-10.904,6.56-15.312,11.072V208h-48v16H274.112z M214.176,248.112c0.608-0.016,1.216-0.112,1.824-0.112
				c18.648,0,35.488,9.184,45.808,24h-46.312c0.296-2.656,0.504-5.32,0.504-8C216,258.536,215.336,253.232,214.176,248.112z
				 M280,256c0-22.056,17.944-40,40-40c22.056,0,40,17.944,40,40v16h-79.712c-0.096-0.192-0.192-0.392-0.288-0.584V256z M200,264
				c0,2.688-0.24,5.352-0.624,8H104v-47.072C114.512,214.176,128.904,208,144,208C174.872,208,200,233.128,200,264z M56,336h12.688
				L56,348.688V336z M396.688,408L368,436.688L339.312,408L368,379.312l10.336,10.336l11.312-11.312L379.312,368L408,339.312
				L436.688,368L408,396.688l-10.344-10.344l-11.312,11.312L396.688,408z M368,356.688L347.312,336h41.376L368,356.688z
				 M356.688,368L328,396.688L299.312,368L328,339.312L356.688,368z M316.688,408L288,436.688L259.312,408L288,379.312L316.688,408z
				 M288,356.688L267.312,336h41.376L288,356.688z M276.688,368L248,396.688L219.312,368L248,339.312L276.688,368z M208,356.688
				L187.312,336h41.376L208,356.688z M196.688,368L168,396.688L139.312,368L168,339.312L196.688,368z M156.688,408L128,436.688
				L99.312,408L128,379.312L156.688,408z M128,356.688L107.312,336h41.376L128,356.688z M116.688,368L88,396.688L59.312,368
				L88,339.312L116.688,368z M56,424v-36.688L76.688,408l-20.464,20.464C56.112,426.984,56,425.504,56,424z M89.464,475.224
				c-12.776-5.648-23.04-15.912-28.688-28.688L88,419.312L116.688,448L89.464,475.224z M112,480c-1.504,0-2.984-0.112-4.464-0.224
				L128,459.312L148.688,480H112z M139.312,448L168,419.312L196.688,448L168,476.688L139.312,448z M187.312,480L208,459.312
				L228.688,480H187.312z M219.312,448l10.344-10.344l-11.312-11.312L208,436.688L179.312,408L208,379.312L236.688,408
				l-10.344,10.344l11.312,11.312L248,419.312L276.688,448L248,476.688L219.312,448z M267.312,480L288,459.312L308.688,480H267.312z
				 M299.312,448L328,419.312L356.688,448L328,476.688L299.312,448z M384,480h-36.688L368,459.312l20.464,20.464
				C386.984,479.888,385.504,480,384,480z M406.536,475.224L379.312,448L408,419.312l27.224,27.224
				C429.584,459.312,419.312,469.584,406.536,475.224z M440,424c0,1.504-0.112,2.984-0.224,4.464L419.312,408L440,387.312V424z
				 M440,348.688L427.312,336H440V348.688z M440,320H56v-32h384V320z"/>
			<path d="M144,224c-3.136,0-8.04-3.392-10.368-5.68l-11.288,11.336C123.4,230.72,133,240,144,240s20.6-9.28,21.656-10.344
				l-11.288-11.336C152.04,220.608,147.136,224,144,224z"/>
			<rect x="296" y="240" width="48" height="16"/>
			<rect x="232" y="176" width="48" height="16"/>
		</g>
	</g>
</g>
<g>
</g>
<g>
</g>
<g>
</g>
<g>
</g>
<g>
</g>
<g>
</g>
<g>
</g>
<g>
</g>
<g>
</g>
<g>
</g>
<g>
</g>
<g>
</g>
<g>
</g>
<g>
</g>
<g>
</g>
</svg>
