<?xml version="1.0" encoding="iso-8859-1"?>
<!-- Generator: Adobe Illustrator 18.0.0, SVG Export Plug-In . SVG Version: 6.00 Build 0)  -->
<!DOCTYPE svg PUBLIC "-//W3C//DTD SVG 1.1//EN" "http://www.w3.org/Graphics/SVG/1.1/DTD/svg11.dtd">
<svg version="1.1" id="Capa_1" xmlns="http://www.w3.org/2000/svg" xmlns:xlink="http://www.w3.org/1999/xlink" x="0px" y="0px"
	 viewBox="0 0 66.139 66.139" style="enable-background:new 0 0 66.139 66.139;" xml:space="preserve">
<g>
	<path style="fill:#231F20;" d="M43.185,20.412c2.896,0.42,5.332-0.977,8.112-1.099c0.1,0.706,0.186,1.31,0.287,2.021
		c-0.988,0.293-1.836,0.545-2.684,0.796c-0.008,0.131-0.017,0.263-0.025,0.394c1.809,0.13,3.615,0.313,5.425,0.377
		c2.778,0.098,3.112,0.357,3.259,3.163c0.064,1.239-0.047,2.486,0.005,3.726c0.068,1.612-0.157,3.017-2.204,3.468
		c-0.281,6.301-0.576,12.498-0.825,18.695c-0.09,2.229-0.083,4.463-0.093,6.695c-0.009,1.816-0.017,3.634,0.048,5.449
		c0.054,1.504-0.314,2.068-1.703,2.041c-6.616-0.131-13.232-0.311-19.848-0.443c-0.9-0.018-1.804,0.212-2.706,0.205
		c-5.712-0.046-11.424-0.097-17.134-0.229c-0.864-0.02-1.717-0.474-2.749-0.779c-0.31-10.439,0.713-20.819,0.825-31.141
		c-0.849-0.507-1.856-0.785-2.256-1.436c-0.422-0.687-0.368-1.733-0.341-2.616c0.056-1.814,0.184-3.629,0.372-5.436
		c0.227-2.19,0.542-2.465,2.753-2.485c2.4-0.021,4.802,0.025,7.202,0.036c0.813,0.004,1.625-0.012,2.437-0.019
		c0.036-0.16,0.071-0.321,0.107-0.481c-0.98-0.291-1.957-0.59-2.941-0.868c-0.738-0.208-1.57-0.386-1.308-1.417
		c0.241-0.948,1.08-0.963,1.826-0.789c1.761,0.41,3.504,0.899,5.759,1.488c-1.573-1.755-2.922-3.106-4.09-4.599
		c-1.725-2.206-3.351-4.421-4.013-7.31c-0.781-3.413,0.172-4.871,3.618-6.987c2.353-1.446,4.8-0.862,6.994,0.638
		c2.622,1.794,3.788,4.515,4.531,7.463c0.3,1.193,0.515,2.408,0.778,3.663c1.376-1.327,2.687-2.654,4.066-3.905
		c1.647-1.495,3.525-2.2,5.673-1.134c2.202,1.092,3.413,3.031,3.404,5.384c-0.006,1.665-0.656,3.351-1.17,4.98
		C44.316,18.75,43.722,19.475,43.185,20.412z M18.433,35.769c0.033,0.137,0.066,0.274,0.099,0.411
		c-1.705,0.093-3.411,0.185-5.232,0.284c0.007,0.919,0.013,1.602,0.02,2.406c1.935,0.17,3.72,0.327,5.505,0.483
		c-1.375,0.394-2.766,0.515-4.128,0.781c-2,0.391-2.097,0.637-1.539,2.871c1.252,0.26,2.503,0.52,3.754,0.78
		c-0.013,0.075-0.026,0.149-0.04,0.224c-1.277,0.156-2.554,0.311-3.937,0.479c0.01,1.228,0.019,2.194,0.029,3.449
		c2.585,0.129,5.126,0.255,7.667,0.382c-0.003,0.069-0.006,0.138-0.009,0.208c-2.533,0.231-5.066,0.463-7.768,0.71
		c-0.113,1.335-0.205,2.429-0.315,3.728c2.809,0.113,5.313,0.215,7.817,0.316c-1.792,0.419-3.583,0.691-5.384,0.844
		c-1.982,0.167-3.098,0.692-2.342,3.512c2.209-0.019,4.524-0.038,6.839-0.057c0.002,0.13,0.005,0.261,0.008,0.392
		c-2.32,0.437-4.641,0.874-6.944,1.307c-0.072,0.545-0.161,0.87-0.142,1.188c0.017,0.304,0.146,0.601,0.263,1.038
		c2.107,0.091,4.146,0.18,6.185,0.268c-0.661,0.243-1.313,0.297-1.965,0.366c-0.738,0.078-1.479,0.142-2.211,0.261
		c-0.548,0.089-1.084,0.254-1.626,0.385c5.556,0.962,11.028,0.947,16.765,0.691c-0.29-10.326-0.57-20.284-0.846-30.081
		c-0.465-0.227-0.605-0.339-0.76-0.365c-4.456-0.756-8.879,0.204-13.32,0.285c-0.818,0.015-1.559,0.536-1.479,1.814
		C15.073,35.342,16.753,35.555,18.433,35.769z M38.699,33.081c0.026,3.167,0.035,6.041,0.079,8.914
		c0.051,3.297,0.112,6.594,0.208,9.89c0.101,3.471,0.254,6.94,0.367,10.411c0.037,1.122,0.526,1.643,1.697,1.607
		c1.484-0.046,2.971,0.032,4.457,0.03c2.124-0.004,4.249-0.032,6.46-0.05c0.418-10.324,0.822-20.292,1.229-30.335
		C48.251,32.749,43.57,33.015,38.699,33.081z M36.936,63.455c-0.021-2.583-0.05-4.89-0.058-7.197
		c-0.008-2.309,0.009-4.617,0.007-6.926c0-0.905-0.03-1.81-0.029-2.714c0.001-3.537,0.064-7.074-0.001-10.609
		c-0.06-3.214-0.328-6.424-0.369-9.637c-0.028-2.216-0.615-2.888-2.746-2.6c-0.486,0.066-0.953,0.313-1.438,0.347
		c-1.306,0.092-1.677,0.917-1.649,2.03c0.068,2.72,0.174,5.439,0.264,8.158c0.243,7.348,0.482,14.697,0.731,22.044
		c0.08,2.357,0.189,4.714,0.288,7.145C33.848,63.48,35.395,63.467,36.936,63.455z M30.65,20.715
		c0.049-0.255,0.145-0.551,0.156-0.851c0.166-4.089-0.633-8.056-1.727-11.949c-0.697-2.483-2.328-4.318-4.71-5.471
		c-0.993-0.48-1.893-0.465-2.848-0.041c-2.309,1.024-3.166,2.754-2.49,5.215c0.216,0.788,0.581,1.548,0.968,2.273
		c2.392,4.488,6.26,7.617,10.042,10.82C30.131,20.787,30.344,20.718,30.65,20.715z M10.84,25.971
		c1.992,0.101,3.913,0.199,5.834,0.296c-1.724,0.492-3.431,0.708-5.135,0.943c-0.913,0.126-1.249,0.609-0.921,1.521
		c3.665,0.226,7.262,0.449,10.86,0.671c-1.165,0.4-2.319,0.406-3.474,0.42c-1.16,0.015-2.328-0.033-3.478,0.081
		c-1.046,0.104-2.074,0.388-3.11,0.593c5.818,0.388,11.557,0.33,17.553,0.013c-0.189-2.344-0.352-4.367-0.511-6.342
		c-0.414-0.148-0.642-0.301-0.871-0.301c-5.052-0.012-10.103-0.004-15.155-0.008C11.062,23.858,10.843,24.719,10.84,25.971z
		 M38.523,30.737c5.925,0.058,11.552,0.688,17.148-0.071c-0.017-2.048-0.031-3.723-0.046-5.526
		c-5.818-0.363-11.377-0.771-17.152-0.338C38.49,26.747,38.504,28.53,38.523,30.737z M32.913,21.596
		c3.03-0.601,5.557-0.855,7.773-2.279c2.64-1.696,3.668-5.383,2.218-8.059c-1.052-1.938-2.625-2.329-4.511-1.168
		c-1.681,1.035-2.977,2.341-3.495,4.323C34.315,16.643,33.673,18.858,32.913,21.596z"/>
</g>
<g>
</g>
<g>
</g>
<g>
</g>
<g>
</g>
<g>
</g>
<g>
</g>
<g>
</g>
<g>
</g>
<g>
</g>
<g>
</g>
<g>
</g>
<g>
</g>
<g>
</g>
<g>
</g>
<g>
</g>
</svg>
