<svg height="512pt" viewBox="-4 0 512 512" width="512pt" xmlns="http://www.w3.org/2000/svg"><path d="m491.023438 438.648438-141.214844-147.316407c9.046875-14.214843 16.335937-29.527343 21.296875-45.601562 5.574219-18.074219 8.398437-36.910157 8.398437-55.980469 0-104.625-85.125-189.75-189.753906-189.75-104.625 0-189.75 85.125-189.75 189.75 0 104.628906 85.125 189.753906 189.75 189.753906 12.449219 0 24.890625-1.210937 36.996094-3.621094 9.347656-1.839843 15.421875-10.917968 13.566406-20.265624-1.851562-9.351563-10.957031-15.515626-20.273438-13.5625-9.894531 1.953124-20.085937 2.949218-30.289062 2.949218-85.601562 0-155.25-69.640625-155.25-155.253906 0-85.609375 69.648438-155.25 155.25-155.25 85.605469 0 155.253906 69.640625 155.253906 155.25 0 15.617188-2.308594 31.03125-6.867187 45.804688-9.550781 30.980468-29.175781 58.84375-55.246094 78.417968-.242187.183594-.351563.460938-.582031.65625-.253906.210938-.578125.277344-.824219.503906-.667969.625-.984375 1.441407-1.527344 2.140626-.695312.882812-1.417969 1.699218-1.917969 2.679687-.523437 1.023437-.792968 2.082031-1.097656 3.175781-.296875 1.042969-.625 2.039063-.722656 3.121094-.09375 1.105469.054688 2.164062.167969 3.273438.113281 1.105468.1875 2.167968.515625 3.246093.328125 1.074219.90625 2.023438 1.449218 3.03125.410157.765625.574219 1.613281 1.113282 2.332031.195312.265626.496094.378907.707031.628907.195313.230469.253906.527343.460937.75l149.136719 159.871093c8.40625 8.402344 19.457031 12.617188 30.5 12.617188 11.046875 0 22.085938-4.210938 30.484375-12.601562 8.152344-8.136719 12.640625-18.96875 12.640625-30.507813 0-11.527344-4.488281-22.34375-12.371093-30.242187zm-24.65625 36.335937c-3.367188 3.371094-8.835938 3.371094-11.78125.4375l-136.371094-146.195313c3.558594-3.289062 6.992187-6.703124 10.285156-10.253906l137.867188 143.816406c2.203124 2.207032 2.527343 4.769532 2.527343 6.097657 0 1.332031-.328125 3.890625-2.527343 6.097656zm0 0"/><path d="m189.75 276c-9.527344 0-17.25-7.714844-17.25-17.25v-138c0-9.535156 7.722656-17.25 17.25-17.25s17.25 7.714844 17.25 17.25v138c0 9.535156-7.722656 17.25-17.25 17.25zm0 0"/><path d="m258.75 207h-138c-9.527344 0-17.25-7.714844-17.25-17.25s7.722656-17.25 17.25-17.25h138c9.527344 0 17.25 7.714844 17.25 17.25s-7.722656 17.25-17.25 17.25zm0 0"/></svg>